<svg xmlns="http://www.w3.org/2000/svg" viewBox="0 0 512 512">
  <!-- Background -->
  <circle cx="256" cy="256" r="250" fill="#000000" stroke="#ffffff" stroke-width="8"/>

  <!-- Inner circle -->
  <circle cx="256" cy="256" r="230" fill="#1a1a1a" stroke="#666666" stroke-width="4"/>

  <!-- Winged skull center -->
  <g transform="translate(256, 220)">
    <!-- Wings -->
    <path d="M-50 0 Q-80 -15 -105 -10 L-100 -5 Q-80 -8 -55 5 L-60 12 Q-80 0 -100 -3 L-95 5 Q-75 2 -58 10 Z"
          fill="#ffffff" stroke="#000000" stroke-width="2"/>
    <path d="M50 0 Q80 -15 105 -10 L100 -5 Q80 -8 55 5 L60 12 Q80 0 100 -3 L95 5 Q75 2 58 10 Z"
          fill="#ffffff" stroke="#000000" stroke-width="2"/>

    <!-- Skull -->
    <ellipse cx="0" cy="0" rx="45" ry="55" fill="#e0e0e0" stroke="#000000" stroke-width="3"/>
    <ellipse cx="-16" cy="-13" rx="12" ry="20" fill="#000000"/>
    <ellipse cx="16" cy="-13" rx="12" ry="20" fill="#000000"/>

    <!-- Nose -->
    <path d="M-6 6 L-6 20 L-10 25 L-6 25 M6 6 L6 20 L10 25 L6 25 M-3 6 L-3 27 M3 6 L3 27"
          stroke="#000000" stroke-width="3" fill="none"/>

    <!-- Teeth -->
    <g fill="#000000">
      <rect x="-22" y="35" width="6" height="12" rx="1"/>
      <rect x="-14" y="35" width="6" height="14" rx="1"/>
      <rect x="-6" y="35" width="6" height="15" rx="1"/>
      <rect x="2" y="35" width="6" height="15" rx="1"/>
      <rect x="10" y="35" width="6" height="14" rx="1"/>
      <rect x="18" y="35" width="6" height="12" rx="1"/>
    </g>
  </g>

  <!-- Crossed pistons -->
  <g transform="translate(256, 340)">
    <g transform="rotate(-25)">
      <rect x="-60" y="-8" width="85" height="16" rx="3" fill="#888888" stroke="#000000" stroke-width="2"/>
      <circle cx="18" cy="0" r="15" fill="#666666" stroke="#000000" stroke-width="2"/>
      <circle cx="18" cy="0" r="9" fill="#444444"/>
    </g>
    <g transform="rotate(25)">
      <rect x="-60" y="-8" width="85" height="16" rx="3" fill="#888888" stroke="#000000" stroke-width="2"/>
      <circle cx="18" cy="0" r="15" fill="#666666" stroke="#000000" stroke-width="2"/>
      <circle cx="18" cy="0" r="9" fill="#444444"/>
    </g>

    <!-- 1% badge -->
    <circle cx="0" cy="0" r="22" fill="#FF0000" stroke="#000000" stroke-width="3"/>
    <text x="0" y="8" font-family="Arial" font-size="22" font-weight="bold"
          text-anchor="middle" fill="#ffffff">1%</text>
  </g>

  <!-- Top rocker -->
  <path id="topRockerPatch" d="M 80 256 A 176 176 0 0 1 432 256" fill="none"/>
  <text font-family="Impact" font-size="42" font-weight="bold" fill="#ffffff" letter-spacing="8">
    <textPath href="#topRockerPatch" startOffset="50%" text-anchor="middle">
      THE LOST
    </textPath>
  </text>

  <!-- Bottom rocker -->
  <path id="bottomRockerPatch" d="M 432 256 A 176 176 0 0 1 80 256" fill="none"/>
  <text font-family="Impact" font-size="28" font-weight="bold" fill="#FF0000" letter-spacing="6">
    <textPath href="#bottomRockerPatch" startOffset="50%" text-anchor="middle">
      RADIO 425
    </textPath>
  </text>

  <!-- MC letters -->
  <text x="140" y="280" font-family="Impact" font-size="36" font-weight="bold"
        fill="#FF0000" stroke="#000000" stroke-width="1">MC</text>
  <text x="335" y="280" font-family="Impact" font-size="36" font-weight="bold"
        fill="#FF0000" stroke="#000000" stroke-width="1">1%</text>
</svg>