<svg xmlns="http://www.w3.org/2000/svg" viewBox="0 0 512 512">
  <defs>
    <linearGradient id="vagosPatchGrad" x1="0%" y1="0%" x2="100%" y2="100%">
      <stop offset="0%" style="stop-color:#FFD700;stop-opacity:1" />
      <stop offset="100%" style="stop-color:#FFA500;stop-opacity:1" />
    </linearGradient>
  </defs>

  <!-- Outer circle -->
  <circle cx="256" cy="256" r="250" fill="#000000" stroke="#FFD700" stroke-width="8"/>

  <!-- Inner circle -->
  <circle cx="256" cy="256" r="230" fill="#1a1a1a" stroke="url(#vagosPatchGrad)" stroke-width="4"/>

  <!-- Sunburst rays background -->
  <g transform="translate(256, 256)" fill="#FFD700" opacity="0.15">
    <path d="M0 -230 L30 -80 L-30 -80 Z"/>
    <path d="M163 -163 L83 -43 L43 -83 Z"/>
    <path d="M230 0 L80 30 L80 -30 Z"/>
    <path d="M163 163 L83 43 L43 83 Z"/>
    <path d="M0 230 L30 80 L-30 80 Z"/>
    <path d="M-163 163 L-83 43 L-43 83 Z"/>
    <path d="M-230 0 L-80 30 L-80 -30 Z"/>
    <path d="M-163 -163 L-83 -43 L-43 -83 Z"/>
  </g>

  <!-- Sunflower -->
  <g transform="translate(256, 140)">
    <!-- Petals -->
    <g fill="url(#vagosPatchGrad)" stroke="#FFA500" stroke-width="2">
      <ellipse cx="0" cy="-30" rx="12" ry="22"/>
      <ellipse cx="21" cy="-21" rx="12" ry="22" transform="rotate(45 21 -21)"/>
      <ellipse cx="30" cy="0" rx="12" ry="22" transform="rotate(90 30 0)"/>
      <ellipse cx="21" cy="21" rx="12" ry="22" transform="rotate(135 21 21)"/>
      <ellipse cx="0" cy="30" rx="12" ry="22" transform="rotate(180 0 30)"/>
      <ellipse cx="-21" cy="21" rx="12" ry="22" transform="rotate(225 -21 21)"/>
      <ellipse cx="-30" cy="0" rx="12" ry="22" transform="rotate(270 -30 0)"/>
      <ellipse cx="-21" cy="-21" rx="12" ry="22" transform="rotate(315 -21 -21)"/>
    </g>

    <!-- Center -->
    <circle cx="0" cy="0" r="15" fill="#8B4513" stroke="#654321" stroke-width="2"/>
    <g fill="#654321">
      <circle cx="-6" cy="-6" r="2"/>
      <circle cx="6" cy="-6" r="2"/>
      <circle cx="-6" cy="6" r="2"/>
      <circle cx="6" cy="6" r="2"/>
      <circle cx="0" cy="0" r="2"/>
    </g>
  </g>

  <!-- Large V -->
  <g transform="translate(256, 260)">
    <path d="M-80 -80 L-45 -80 L0 60 L45 -80 L80 -80 L25 90 L-25 90 Z"
          fill="url(#vagosPatchGrad)" stroke="#000000" stroke-width="4"/>

    <!-- Shadow -->
    <path d="M-65 -65 L-35 -65 L0 50 L35 -65 L65 -65 L20 75 L-20 75 Z"
          fill="#000000" opacity="0.3"/>
  </g>

  <!-- Lowrider -->
  <g transform="translate(256, 380)">
    <rect x="-90" y="-20" width="180" height="25" rx="3" fill="url(#vagosPatchGrad)" stroke="#000000" stroke-width="2"/>
    <path d="M-50 -20 L-45 -40 L45 -40 L50 -20"
          fill="url(#vagosPatchGrad)" stroke="#000000" stroke-width="2"/>
    <rect x="-43" y="-38" width="35" height="15" rx="1" fill="#333333"/>
    <rect x="8" y="-38" width="35" height="15" rx="1" fill="#333333"/>

    <!-- Wheels -->
    <circle cx="-60" cy="10" r="18" fill="#000000" stroke="#FFD700" stroke-width="2"/>
    <circle cx="-60" cy="10" r="10" fill="#333333"/>
    <circle cx="-60" cy="10" r="5" fill="#FFD700"/>

    <circle cx="60" cy="10" r="18" fill="#000000" stroke="#FFD700" stroke-width="2"/>
    <circle cx="60" cy="10" r="10" fill="#333333"/>
    <circle cx="60" cy="10" r="5" fill="#FFD700"/>
  </g>

  <!-- Dice -->
  <g transform="translate(140, 320)">
    <rect x="0" y="0" width="35" height="35" rx="4" fill="#ffffff" stroke="#000000" stroke-width="2"
          transform="rotate(-15 17.5 17.5)"/>
    <circle cx="17.5" cy="17.5" r="4" fill="#000000" transform="rotate(-15 17.5 17.5)"/>
  </g>

  <!-- Text -->
  <path id="topCurveVagos" d="M 80 256 A 176 176 0 0 1 432 256" fill="none"/>
  <text font-family="Impact" font-size="48" font-weight="bold" fill="#FFD700" letter-spacing="12">
    <textPath href="#topCurveVagos" startOffset="50%" text-anchor="middle">
      VAGOS
    </textPath>
  </text>

  <path id="bottomCurveVagos" d="M 432 256 A 176 176 0 0 1 80 256" fill="none"/>
  <text font-family="sans-serif" font-size="24" font-weight="bold" fill="#FFD700" letter-spacing="4">
    <textPath href="#bottomCurveVagos" startOffset="50%" text-anchor="middle">
      RADIO 427
    </textPath>
  </text>
</svg>