<svg xmlns="http://www.w3.org/2000/svg" viewBox="0 0 1500 1000">
  <defs>
    <linearGradient id="flagGrad" x1="0%" y1="0%" x2="100%" y2="100%">
      <stop offset="0%" style="stop-color:#a30000;stop-opacity:1" />
      <stop offset="50%" style="stop-color:#660000;stop-opacity:1" />
      <stop offset="100%" style="stop-color:#a30000;stop-opacity:1" />
    </linearGradient>
  </defs>

  <!-- Background -->
  <rect width="1500" height="1000" fill="#000000"/>

  <!-- Red stripes -->
  <rect y="0" width="1500" height="200" fill="url(#flagGrad)"/>
  <rect y="800" width="1500" height="200" fill="url(#flagGrad)"/>

  <!-- Central emblem shield -->
  <path d="M750 250 L950 300 L950 500 Q950 650 750 850 Q550 650 550 500 L550 300 Z"
        fill="url(#flagGrad)" stroke="#d4af37" stroke-width="6"/>

  <!-- Inner border -->
  <path d="M750 280 L920 320 L920 500 Q920 630 750 810 Q580 630 580 500 L580 320 Z"
        fill="none" stroke="#ffffff" stroke-width="3"/>

  <!-- Crown -->
  <g transform="translate(750, 420)">
    <path d="M-100 40 L-100 60 L100 60 L100 40 L82 5 L65 40 L32 -15 L0 35 L-32 -15 L-65 40 L-82 5 Z"
          fill="#d4af37" stroke="#000000" stroke-width="3"/>
    <circle cx="-65" cy="20" r="10" fill="#a30000"/>
    <circle cx="-32" cy="20" r="10" fill="#a30000"/>
    <circle cx="0" cy="20" r="10" fill="#a30000"/>
    <circle cx="32" cy="20" r="10" fill="#a30000"/>
    <circle cx="65" cy="20" r="10" fill="#a30000"/>
  </g>

  <!-- Large S monogram -->
  <path d="M750 520 Q695 520 665 545 Q635 570 635 610 Q635 638 652 657 Q669 676 705 687 L770 702 Q790 707 801 718 Q812 729 812 750 Q812 771 796 787 Q780 803 750 803 Q720 803 700 787 Q680 771 675 745 L615 765 Q625 815 662 843 Q699 871 750 871 Q801 871 836 843 Q871 815 871 760 Q871 725 848 703 Q825 681 785 671 L720 656 Q700 651 689 640 Q678 629 678 615 Q678 595 693 581 Q708 567 735 567 Q762 567 780 581 Q798 595 803 615 L863 598 Q853 555 821 527 Q789 500 750 500 Z"
        fill="#ffffff" stroke="#000000" stroke-width="4"/>

  <!-- Side dollar signs -->
  <g transform="translate(350, 500)">
    <rect x="-4" y="-60" width="8" height="150" fill="#d4af37"/>
    <path d="M0 -45 Q-35 -45 -50 -22 Q-65 1 -50 24 L50 24 Q35 47 0 47 Q-35 47 -50 30 M0 47 Q35 47 50 24 Q65 1 50 -22 L-50 -22 Q-35 -45 0 -45"
          fill="none" stroke="#d4af37" stroke-width="10"/>
  </g>

  <g transform="translate(1150, 500)">
    <rect x="-4" y="-60" width="8" height="150" fill="#d4af37"/>
    <path d="M0 -45 Q-35 -45 -50 -22 Q-65 1 -50 24 L50 24 Q35 47 0 47 Q-35 47 -50 30 M0 47 Q35 47 50 24 Q65 1 50 -22 L-50 -22 Q-35 -45 0 -45"
          fill="none" stroke="#d4af37" stroke-width="10"/>
  </g>

  <!-- Text banner -->
  <text x="750" y="940" font-family="serif" font-size="72" font-weight="bold"
        text-anchor="middle" fill="#d4af37" letter-spacing="12">THE SYNDICATE</text>
  <text x="750" y="985" font-family="sans-serif" font-size="32" font-weight="bold"
        text-anchor="middle" fill="#ffffff">RADIO 420 • GROVE STREET</text>
</svg>