<svg xmlns="http://www.w3.org/2000/svg" viewBox="0 0 1024 1024">
  <defs>
    <linearGradient id="syndicateGrad" x1="0%" y1="0%" x2="100%" y2="100%">
      <stop offset="0%" style="stop-color:#a30000;stop-opacity:1" />
      <stop offset="100%" style="stop-color:#660000;stop-opacity:1" />
    </linearGradient>
  </defs>

  <!-- Background -->
  <rect width="1024" height="1024" fill="#000000"/>

  <!-- Shield -->
  <path d="M512 100 L812 200 L812 450 Q812 650 512 900 Q212 650 212 450 L212 200 Z"
        fill="url(#syndicateGrad)" stroke="#ffffff" stroke-width="4"/>

  <!-- Inner shield border -->
  <path d="M512 140 L772 220 L772 450 Q772 625 512 850 Q252 625 252 450 L252 220 Z"
        fill="none" stroke="#d4af37" stroke-width="2"/>

  <!-- Crown -->
  <g transform="translate(512, 350)">
    <!-- Crown base -->
    <path d="M-120 50 L-120 70 L120 70 L120 50 L100 10 L80 50 L40 -10 L0 40 L-40 -10 L-80 50 L-100 10 Z"
          fill="#d4af37" stroke="#000000" stroke-width="2"/>
    <!-- Jewels -->
    <circle cx="-80" cy="20" r="8" fill="#a30000"/>
    <circle cx="-40" cy="20" r="8" fill="#a30000"/>
    <circle cx="0" cy="20" r="8" fill="#a30000"/>
    <circle cx="40" cy="20" r="8" fill="#a30000"/>
    <circle cx="80" cy="20" r="8" fill="#a30000"/>
  </g>

  <!-- Monogram S -->
  <path d="M512 500 Q450 500 420 530 Q390 560 390 600 Q390 630 410 650 Q430 670 470 680 L540 695 Q560 700 570 710 Q580 720 580 740 Q580 760 565 775 Q550 790 520 790 Q490 790 470 775 Q450 760 445 735 L385 755 Q395 800 430 825 Q465 850 520 850 Q575 850 610 820 Q645 790 645 740 Q645 705 620 685 Q595 665 555 655 L485 640 Q465 635 455 625 Q445 615 445 600 Q445 580 460 568 Q475 556 500 556 Q525 556 542 568 Q559 580 564 600 L624 585 Q615 545 585 522 Q555 500 512 500 Z"
        fill="#ffffff" stroke="#000000" stroke-width="3"/>

  <!-- Dollar signs -->
  <g transform="translate(330, 450)" opacity="0.6">
    <rect x="-3" y="-40" width="6" height="100" fill="#d4af37"/>
    <path d="M0 -30 Q-25 -30 -35 -15 Q-45 0 -35 15 L35 15 Q25 30 0 30 Q-25 30 -35 20 M0 30 Q25 30 35 15 Q45 0 35 -15 L-35 -15 Q-25 -30 0 -30"
          fill="none" stroke="#d4af37" stroke-width="8"/>
  </g>

  <g transform="translate(694, 450)" opacity="0.6">
    <rect x="-3" y="-40" width="6" height="100" fill="#d4af37"/>
    <path d="M0 -30 Q-25 -30 -35 -15 Q-45 0 -35 15 L35 15 Q25 30 0 30 Q-25 30 -35 20 M0 30 Q25 30 35 15 Q45 0 35 -15 L-35 -15 Q-25 -30 0 -30"
          fill="none" stroke="#d4af37" stroke-width="8"/>
  </g>

  <!-- Banner -->
  <path d="M300 750 L724 750 L724 820 L700 800 L512 800 L324 800 L300 820 Z"
        fill="#000000" stroke="#d4af37" stroke-width="3"/>
  <text x="512" y="795" font-family="serif" font-size="36" font-weight="bold"
        text-anchor="middle" fill="#d4af37">THE SYNDICATE</text>
</svg>