<svg xmlns="http://www.w3.org/2000/svg" viewBox="0 0 512 512">
  <defs>
    <linearGradient id="patchGrad" x1="0%" y1="0%" x2="100%" y2="100%">
      <stop offset="0%" style="stop-color:#a30000;stop-opacity:1" />
      <stop offset="100%" style="stop-color:#660000;stop-opacity:1" />
    </linearGradient>
  </defs>

  <!-- Outer circle -->
  <circle cx="256" cy="256" r="250" fill="#000000" stroke="#d4af37" stroke-width="8"/>

  <!-- Inner circle -->
  <circle cx="256" cy="256" r="230" fill="url(#patchGrad)" stroke="#ffffff" stroke-width="4"/>

  <!-- Crown -->
  <g transform="translate(256, 180)">
    <path d="M-80 30 L-80 45 L80 45 L80 30 L65 0 L50 30 L25 -15 L0 25 L-25 -15 L-50 30 L-65 0 Z"
          fill="#d4af37" stroke="#000000" stroke-width="2"/>
    <circle cx="-50" cy="15" r="6" fill="#a30000"/>
    <circle cx="-25" cy="15" r="6" fill="#a30000"/>
    <circle cx="0" cy="15" r="6" fill="#a30000"/>
    <circle cx="25" cy="15" r="6" fill="#a30000"/>
    <circle cx="50" cy="15" r="6" fill="#a30000"/>
  </g>

  <!-- Large S -->
  <path d="M256 240 Q215 240 195 260 Q175 280 175 310 Q175 330 187 345 Q199 360 225 368 L280 380 Q295 383 302 391 Q309 399 309 413 Q309 427 299 437 Q289 447 270 447 Q251 447 238 437 Q225 427 222 410 L172 423 Q179 455 202 473 Q225 491 270 491 Q315 491 340 470 Q365 449 365 413 Q365 390 349 376 Q333 362 307 356 L252 344 Q237 341 230 334 Q223 327 223 315 Q223 302 233 294 Q243 286 260 286 Q277 286 288 294 Q299 302 302 315 L352 305 Q346 276 325 258 Q304 240 256 240 Z"
        fill="#ffffff" stroke="#000000" stroke-width="3"/>

  <!-- Outer ring text -->
  <path id="topCurve" d="M 80 256 A 176 176 0 0 1 432 256" fill="none"/>
  <text font-family="serif" font-size="32" font-weight="bold" fill="#d4af37" letter-spacing="8">
    <textPath href="#topCurve" startOffset="50%" text-anchor="middle">
      THE SYNDICATE
    </textPath>
  </text>

  <path id="bottomCurve" d="M 432 256 A 176 176 0 0 1 80 256" fill="none"/>
  <text font-family="serif" font-size="24" font-weight="bold" fill="#ffffff" letter-spacing="4">
    <textPath href="#bottomCurve" startOffset="50%" text-anchor="middle">
      RADIO 420
    </textPath>
  </text>
</svg>